<svg id="Слой_1" data-name="Слой 1" xmlns="http://www.w3.org/2000/svg" viewBox="0 0 625.42 227.12"><defs><style>.cls-1{fill:#877eff;}</style></defs><title>8888888</title><path d="M76,176.69V39.52h27.69V176.69Z"/><path d="M161,176.69v-114H120.29V39.52h109v23.2h-40.6v114Z"/><path class="cls-1" d="M608.54,0H279q-15.39,1.73-16.89,18.86V208.25c1,11.43,6.61,17.68,16.8,18.87h329.7c10.2-1.19,15.82-7.44,16.81-18.87V18.86Q623.92,1.7,608.54,0M321,39.36V89.85Q333.72,75,351.42,75a38.66,38.66,0,0,1,16.4,3.37,26.79,26.79,0,0,1,11,8.62,31.28,31.28,0,0,1,5.06,11.62q1.37,6.36,1.36,19.76v58.36H358.92V124.14q0-15.65-1.5-19.86a13.05,13.05,0,0,0-5.29-6.7,17.07,17.07,0,0,0-9.51-2.48,21.75,21.75,0,0,0-11.71,3.19,18.31,18.31,0,0,0-7.54,9.6q-2.39,6.4-2.39,19v49.83H294.66V39.36Zm145.5,137.33V161.8a38.34,38.34,0,0,1-14.29,12.55,40,40,0,0,1-18.68,4.59,36.59,36.59,0,0,1-18-4.4A26,26,0,0,1,404,162.17q-3.56-8-3.56-22V77.21h26.32v45.71q0,21,1.45,25.71a14,14,0,0,0,5.3,7.5,16.26,16.26,0,0,0,9.74,2.76,20.67,20.67,0,0,0,12.08-3.7,18.76,18.76,0,0,0,7.31-9.18q2-5.47,2-26.84v-42h26.32v99.48Zm39.65,0V39.36h26.32V88.82Q544.63,75,561.3,75q18.18,0,30.07,13.16t11.9,37.8q0,25.49-12.13,39.25t-29.46,13.77a36.44,36.44,0,0,1-16.82-4.26,40.08,40.08,0,0,1-14.28-12.6v14.61Zm26.13-51.9q0,15.46,4.87,22.86,6.84,10.5,18.18,10.49,8.7,0,14.84-7.44t6.14-23.47q0-17-6.18-24.59a19.55,19.55,0,0,0-15.83-7.54,19.83,19.83,0,0,0-15.74,7.35Q532.26,109.82,532.26,124.79Z"/></svg>