<svg id="Слой_1" data-name="Слой 1" xmlns="http://www.w3.org/2000/svg" viewBox="0 0 455.26 473.07"><defs><style>.cls-1{fill:#877eff;}.cls-2{fill:#fff;}</style></defs><rect width="455.26" height="473.07" rx="92.92"/><path class="cls-1" d="M1082.77,286.44H753.2c-10.25,1.15-15.89,7.42-16.89,18.87V494.7c1,11.43,6.62,17.67,16.8,18.87h329.74c10.19-1.2,15.82-7.45,16.81-18.87V305.31c-1-11.45-6.64-17.72-16.89-18.87" transform="translate(-692.94 -86.87)"/><path d="M1066.28,374.64a40.28,40.28,0,0,0-21.29-12,37.78,37.78,0,0,0-8-1.19c-10.82-1-24.73,3.34-31.19,8.77l1.57-44.35H981.05V463.19h24.45v-7.56a43.83,43.83,0,0,0,28.47,9.81l1.55,0,1.07,0q17.33,0,29.45-13.77t12.13-39.23q0-24.63-11.89-37.8m-21.21,62.57q-6.13,7.44-14.85,7.44-11.33,0-18.17-10.49-4.86-7.4-4.87-22.85,0-15,6.28-22.33a19.81,19.81,0,0,1,15.73-7.35,19.57,19.57,0,0,1,15.83,7.53q6.18,7.54,6.18,24.58,0,16-6.13,23.47M938.64,405.69q0,21.35-2,26.83a18.74,18.74,0,0,1-7.31,9.17,20.61,20.61,0,0,1-12.08,3.71,16.28,16.28,0,0,1-9.74-2.76,14,14,0,0,1-5.29-7.5q-1.46-4.72-1.45-25.71v-45.7H874.5v62.94q0,14,3.55,22A26,26,0,0,0,889.57,461a36.58,36.58,0,0,0,18,4.4c1,0,2,0,3-.11h.08c16.75-.48,25.47-8.08,29.92-13.08v10.95H965V363.73H938.64Zm-85.86-32.21a26.87,26.87,0,0,0-11-8.62,38.08,38.08,0,0,0-14.67-3.33l-.26,0c-11.09-.59-25.28,2.65-31.9,9V325.9H768.64V463.19H795V413.38q0-12.56,2.39-19a18.41,18.41,0,0,1,7.54-9.6,21.81,21.81,0,0,1,11.71-3.18,17,17,0,0,1,9.5,2.48,13,13,0,0,1,5.29,6.69q1.5,4.23,1.5,19.85v52.54h26.31V404.85q0-13.39-1.36-19.76a31.14,31.14,0,0,0-5.05-11.61" transform="translate(-692.94 -86.87)"/><path class="cls-2" d="M853.92,268.64V131.46h27.69V268.64Z" transform="translate(-692.94 -86.87)"/><path class="cls-2" d="M938.88,268.64v-114h-40.7V131.46h109v23.21H966.57v114Z" transform="translate(-692.94 -86.87)"/></svg>